# xmcd CD database file
#
# Track frame offsets:
#	150
#	19492
#	46005
#	66475
#	87560
#	109950
#	128800
#	153037
#	169675
#	193760
#
# Disc length: 2888 seconds
#
# Revision: 0
# Processed by: cddbd v1.5PL3 Copyright (c) Steve Scherf et al.
# Submitted via: CDex 1.51
#
DISCID=860b460a
DTITLE=尾崎亜美 - ナチュラルエージェンシー
DYEAR=1991
DGENRE=JPop
TTITLE0=風のライオン
TTITLE1=Me,Naturally
TTITLE2=Southern Cross
TTITLE3=たとえば、、、
TTITLE4=PEACH PARADICE(re-take version)
TTITLE5=La Fiesta - わたしの中の祭り -
TTITLE6=Morning Rain
TTITLE7=New Precious World
TTITLE8=地球少年は走る
TTITLE9=Endless Dream(re-take version)
EXTD=YEAR: 1991
EXTT0=
EXTT1=
EXTT2=
EXTT3=
EXTT4=
EXTT5=
EXTT6=
EXTT7=
EXTT8=
EXTT9=
PLAYORDER=
